<svg xmlns="http://www.w3.org/2000/svg" width="400" height="120" viewBox="0 0 400 120" fill="none">
  <!-- Outer glow -->
  <circle cx="60" cy="60" r="44" fill="#7c3aed" fill-opacity="0.06"/>

  <!-- Outer ring -->
  <circle cx="60" cy="60" r="36" fill="#7c3aed" fill-opacity="0.12" stroke="#8b5cf6" stroke-opacity="0.3" stroke-width="1.5"/>

  <!-- Orbital ring 1 -->
  <ellipse cx="60" cy="60" rx="42" ry="14" fill="none" stroke="#a78bfa" stroke-opacity="0.3" stroke-width="1.2" transform="rotate(-30 60 60)"/>

  <!-- Orbital ring 2 -->
  <ellipse cx="60" cy="60" rx="42" ry="14" fill="none" stroke="#8b5cf6" stroke-opacity="0.2" stroke-width="1" transform="rotate(40 60 60)"/>

  <!-- Mid glow -->
  <circle cx="60" cy="60" r="20" fill="#7c3aed" fill-opacity="0.1"/>

  <!-- Core orb -->
  <circle cx="60" cy="60" r="14" fill="#7c3aed"/>

  <!-- Core highlight -->
  <circle cx="55" cy="55" r="5" fill="#a78bfa" fill-opacity="0.6"/>

  <!-- Small orbiting nodes -->
  <circle cx="28" cy="42" r="3" fill="#8b5cf6" fill-opacity="0.7"/>
  <circle cx="88" cy="48" r="2.5" fill="#a78bfa" fill-opacity="0.6"/>
  <circle cx="42" cy="90" r="2" fill="#7c3aed" fill-opacity="0.5"/>
  <circle cx="82" cy="78" r="2.5" fill="#8b5cf6" fill-opacity="0.5"/>

  <!-- Connection lines to orbiting nodes -->
  <line x1="48" y1="52" x2="30" y2="43" stroke="#8b5cf6" stroke-opacity="0.2" stroke-width="0.8"/>
  <line x1="72" y1="54" x2="86" y2="48" stroke="#a78bfa" stroke-opacity="0.15" stroke-width="0.8"/>
  <line x1="52" y1="72" x2="43" y2="88" stroke="#7c3aed" stroke-opacity="0.15" stroke-width="0.8"/>
  <line x1="72" y1="68" x2="80" y2="76" stroke="#8b5cf6" stroke-opacity="0.15" stroke-width="0.8"/>

  <!-- Text: "OpenOrbis" -->
  <text x="120" y="56" font-family="Inter, -apple-system, BlinkMacSystemFont, 'Segoe UI', Helvetica, Arial, sans-serif" font-size="38" font-weight="700" fill="#1e1b4b" letter-spacing="-0.5">
    Open<tspan fill="#7c3aed">Orbis</tspan>
  </text>

  <!-- Tagline -->
  <text x="121" y="80" font-family="Inter, -apple-system, BlinkMacSystemFont, 'Segoe UI', Helvetica, Arial, sans-serif" font-size="13" font-weight="400" fill="#6b7280" letter-spacing="0.3">
    Your professional identity as a knowledge graph
  </text>
</svg>
